# xmcd
#
# Track frame offsets:
# 150
# 18900
# 39125
# 51375
# 77250
# 106325
# 125175
# 144950
# 161300
# 178125
# 202805
# 231050
#
# Disc length: 3315 seconds
#
# Revision: 0
# Processed by: cddbd v1.5PL3 Copyright (c) Steve Scherf et al.
# Submitted via: Audion 3.0.2 (http://www.panic.com/audion/)
#
DISCID=8d0cf10c
DTITLE=Ralph Fiennes - The English Patient disk 3
DYEAR=1900
DGENRE=
TTITLE0=The English Patient 23
TTITLE1=The English Patient 24
TTITLE2=The English Patient 25
TTITLE3=The English Patient 26
TTITLE4=The English Patient 27
TTITLE5=The English Patient 28
TTITLE6=The English Patient 29
TTITLE7=The English Patient 30
TTITLE8=The English Patient 31
TTITLE9=The English Patient 32
TTITLE10=The English Patient 33
TTITLE11=The English Patient 34
EXTD=
EXTT0=
EXTT1=
EXTT2=
EXTT3=
EXTT4=
EXTT5=
EXTT6=
EXTT7=
EXTT8=
EXTT9=
EXTT10=
EXTT11=
PLAYORDER=
